<?xml version="1.0" encoding="UTF-8" standalone="no"?>
<!DOCTYPE svg PUBLIC "-//W3C//DTD SVG 1.1//EN"
 "http://www.w3.org/Graphics/SVG/1.1/DTD/svg11.dtd">
<!-- Generated by graphviz version 2.40.1 (20161225.0304)
 -->
<!-- Title: dependencies Pages: 1 -->
<svg width="694pt" height="284pt"
 viewBox="0.00 0.00 694.00 284.00" xmlns="http://www.w3.org/2000/svg" xmlns:xlink="http://www.w3.org/1999/xlink">
<g id="graph0" class="graph" transform="scale(1 1) rotate(0) translate(4 280)">
<title>dependencies</title>
<polygon fill="#ffffff" stroke="transparent" points="-4,4 -4,-280 690,-280 690,4 -4,4"/>
<text text-anchor="start" x="322.0091" y="-42.4" font-family="sans-serif" font-weight="bold" font-size="14.00" fill="#000000">Legend</text>
<polygon fill="#ffffb3" stroke="transparent" points="109,-10 109,-30 129,-30 129,-10 109,-10"/>
<text text-anchor="start" x="132.629" y="-15.4" font-family="sans-serif" font-size="14.00" fill="#000000"> &#160;Declarations</text>
<polygon fill="#8dd3c7" stroke="transparent" points="222,-10 222,-30 242,-30 242,-10 222,-10"/>
<text text-anchor="start" x="245.7251" y="-15.4" font-family="sans-serif" font-size="14.00" fill="#000000"> &#160;Module</text>
<polygon fill="#80b1d3" stroke="transparent" points="308,-10 308,-30 328,-30 328,-10 308,-10"/>
<text text-anchor="start" x="331.7812" y="-15.4" font-family="sans-serif" font-size="14.00" fill="#000000"> &#160;Bootstrap</text>
<polygon fill="#fdb462" stroke="transparent" points="405,-10 405,-30 425,-30 425,-10 405,-10"/>
<text text-anchor="start" x="428.6732" y="-15.4" font-family="sans-serif" font-size="14.00" fill="#000000"> &#160;Providers</text>
<polygon fill="#fb8072" stroke="transparent" points="501,-10 501,-30 521,-30 521,-10 501,-10"/>
<text text-anchor="start" x="524.7258" y="-15.4" font-family="sans-serif" font-size="14.00" fill="#000000"> &#160;Exports</text>
<g id="clust1" class="cluster">
<title>cluster_AzAngular2GalleryModule</title>
<polygon fill="none" stroke="#000000" stroke-dasharray="1,5" points="8,-70 8,-268 678,-268 678,-70 8,-70"/>
</g>
<g id="clust3" class="cluster">
<title>cluster_AzAngular2GalleryModule_imports</title>
<polygon fill="none" stroke="#000000" points="159,-78 159,-130 477,-130 477,-78 159,-78"/>
</g>
<g id="clust4" class="cluster">
<title>cluster_AzAngular2GalleryModule_exports</title>
<polygon fill="none" stroke="#000000" points="16,-208 16,-260 670,-260 670,-208 16,-208"/>
</g>
<!-- CommonModule -->
<g id="node1" class="node">
<title>CommonModule</title>
<polygon fill="#8dd3c7" stroke="#000000" points="468.6681,-122 465.6681,-126 444.6681,-126 441.6681,-122 357.3319,-122 357.3319,-86 468.6681,-86 468.6681,-122"/>
<text text-anchor="middle" x="413" y="-99.8" font-family="Times,serif" font-size="14.00" fill="#000000">CommonModule</text>
</g>
<!-- AzAngular2GalleryModule -->
<g id="node3" class="node">
<title>AzAngular2GalleryModule</title>
<polygon fill="#8dd3c7" stroke="#000000" points="418.2212,-187 415.2212,-191 394.2212,-191 391.2212,-187 247.7788,-187 247.7788,-151 418.2212,-151 418.2212,-187"/>
<text text-anchor="middle" x="333" y="-164.8" font-family="Times,serif" font-size="14.00" fill="#000000">AzAngular2GalleryModule</text>
</g>
<!-- CommonModule&#45;&gt;AzAngular2GalleryModule -->
<g id="edge1" class="edge">
<title>CommonModule&#45;&gt;AzAngular2GalleryModule</title>
<path fill="none" stroke="#000000" d="M387.7634,-122.1061C387.7634,-122.1061 387.7634,-140.991 387.7634,-140.991"/>
<polygon fill="#000000" stroke="#000000" points="384.2634,-140.9909 387.7634,-150.991 391.2634,-140.991 384.2634,-140.9909"/>
</g>
<!-- BrowserAnimationsModule -->
<g id="node2" class="node">
<title>BrowserAnimationsModule</title>
<polygon fill="#8dd3c7" stroke="#000000" points="339.3019,-122 336.3019,-126 315.3019,-126 312.3019,-122 166.6981,-122 166.6981,-86 339.3019,-86 339.3019,-122"/>
<text text-anchor="middle" x="253" y="-99.8" font-family="Times,serif" font-size="14.00" fill="#000000">BrowserAnimationsModule</text>
</g>
<!-- BrowserAnimationsModule&#45;&gt;AzAngular2GalleryModule -->
<g id="edge2" class="edge">
<title>BrowserAnimationsModule&#45;&gt;AzAngular2GalleryModule</title>
<path fill="none" stroke="#000000" d="M293.3952,-122.1061C293.3952,-122.1061 293.3952,-140.991 293.3952,-140.991"/>
<polygon fill="#000000" stroke="#000000" points="289.8952,-140.9909 293.3952,-150.991 296.8952,-140.991 289.8952,-140.9909"/>
</g>
<!-- AzAngular2GalleryComponent  -->
<g id="node4" class="node">
<title>AzAngular2GalleryComponent </title>
<polygon fill="#fb8072" stroke="#000000" points="662.0036,-252 465.9964,-252 465.9964,-216 662.0036,-216 662.0036,-252"/>
<text text-anchor="middle" x="564" y="-229.8" font-family="Times,serif" font-size="14.00" fill="#000000">AzAngular2GalleryComponent </text>
</g>
<!-- AzAngular2GalleryModule&#45;&gt;AzAngular2GalleryComponent  -->
<g id="edge3" class="edge">
<title>AzAngular2GalleryModule&#45;&gt;AzAngular2GalleryComponent </title>
<path fill="none" stroke="#000000" stroke-dasharray="5,2" d="M418.2241,-169C484.556,-169 565.4178,-169 565.4178,-169 565.4178,-169 565.4178,-205.8939 565.4178,-205.8939"/>
<polygon fill="#000000" stroke="#000000" points="561.9179,-205.8938 565.4178,-215.8939 568.9179,-205.8939 561.9179,-205.8938"/>
</g>
<!-- AzAngular2GalleryImageComponent  -->
<g id="node5" class="node">
<title>AzAngular2GalleryImageComponent </title>
<polygon fill="#fb8072" stroke="#000000" points="448.484,-252 217.516,-252 217.516,-216 448.484,-216 448.484,-252"/>
<text text-anchor="middle" x="333" y="-229.8" font-family="Times,serif" font-size="14.00" fill="#000000">AzAngular2GalleryImageComponent </text>
</g>
<!-- AzAngular2GalleryModule&#45;&gt;AzAngular2GalleryImageComponent  -->
<g id="edge4" class="edge">
<title>AzAngular2GalleryModule&#45;&gt;AzAngular2GalleryImageComponent </title>
<path fill="none" stroke="#000000" stroke-dasharray="5,2" d="M333,-187.1061C333,-187.1061 333,-205.991 333,-205.991"/>
<polygon fill="#000000" stroke="#000000" points="329.5001,-205.9909 333,-215.991 336.5001,-205.991 329.5001,-205.9909"/>
</g>
<!-- BrowserAnimationsModule  -->
<g id="node6" class="node">
<title>BrowserAnimationsModule </title>
<polygon fill="#fb8072" stroke="#000000" points="199.8017,-252 24.1983,-252 24.1983,-216 199.8017,-216 199.8017,-252"/>
<text text-anchor="middle" x="112" y="-229.8" font-family="Times,serif" font-size="14.00" fill="#000000">BrowserAnimationsModule </text>
</g>
<!-- AzAngular2GalleryModule&#45;&gt;BrowserAnimationsModule  -->
<g id="edge5" class="edge">
<title>AzAngular2GalleryModule&#45;&gt;BrowserAnimationsModule </title>
<path fill="none" stroke="#000000" stroke-dasharray="5,2" d="M247.6978,-169C214.0963,-169 183.375,-169 183.375,-169 183.375,-169 183.375,-205.8939 183.375,-205.8939"/>
<polygon fill="#000000" stroke="#000000" points="179.8751,-205.8938 183.375,-215.8939 186.8751,-205.8939 179.8751,-205.8938"/>
</g>
</g>
</svg>
