<?xml version="1.0" encoding="UTF-8" standalone="no"?>
<!DOCTYPE svg PUBLIC "-//W3C//DTD SVG 1.1//EN"
 "http://www.w3.org/Graphics/SVG/1.1/DTD/svg11.dtd">
<!-- Generated by graphviz version 2.40.1 (20161225.0304)
 -->
<!-- Title: dependencies Pages: 1 -->
<svg width="820pt" height="284pt"
 viewBox="0.00 0.00 820.00 284.00" xmlns="http://www.w3.org/2000/svg" xmlns:xlink="http://www.w3.org/1999/xlink">
<g id="graph0" class="graph" transform="scale(1 1) rotate(0) translate(4 280)">
<title>dependencies</title>
<polygon fill="#ffffff" stroke="transparent" points="-4,4 -4,-280 816,-280 816,4 -4,4"/>
<text text-anchor="start" x="385.0091" y="-42.4" font-family="sans-serif" font-weight="bold" font-size="14.00" fill="#000000">Legend</text>
<polygon fill="#ffffb3" stroke="transparent" points="172,-10 172,-30 192,-30 192,-10 172,-10"/>
<text text-anchor="start" x="195.629" y="-15.4" font-family="sans-serif" font-size="14.00" fill="#000000"> &#160;Declarations</text>
<polygon fill="#8dd3c7" stroke="transparent" points="285,-10 285,-30 305,-30 305,-10 285,-10"/>
<text text-anchor="start" x="308.7251" y="-15.4" font-family="sans-serif" font-size="14.00" fill="#000000"> &#160;Module</text>
<polygon fill="#80b1d3" stroke="transparent" points="371,-10 371,-30 391,-30 391,-10 371,-10"/>
<text text-anchor="start" x="394.7812" y="-15.4" font-family="sans-serif" font-size="14.00" fill="#000000"> &#160;Bootstrap</text>
<polygon fill="#fdb462" stroke="transparent" points="468,-10 468,-30 488,-30 488,-10 468,-10"/>
<text text-anchor="start" x="491.6732" y="-15.4" font-family="sans-serif" font-size="14.00" fill="#000000"> &#160;Providers</text>
<polygon fill="#fb8072" stroke="transparent" points="564,-10 564,-30 584,-30 584,-10 564,-10"/>
<text text-anchor="start" x="587.7258" y="-15.4" font-family="sans-serif" font-size="14.00" fill="#000000"> &#160;Exports</text>
<g id="clust1" class="cluster">
<title>cluster_AzAngular2GalleryModule</title>
<polygon fill="none" stroke="#000000" stroke-dasharray="1,5" points="8,-70 8,-268 804,-268 804,-70 8,-70"/>
</g>
<g id="clust2" class="cluster">
<title>cluster_AzAngular2GalleryModule_declarations</title>
<polygon fill="none" stroke="#000000" points="342,-78 342,-130 796,-130 796,-78 342,-78"/>
</g>
<g id="clust5" class="cluster">
<title>cluster_AzAngular2GalleryModule_imports</title>
<polygon fill="none" stroke="#000000" points="16,-78 16,-130 334,-130 334,-78 16,-78"/>
</g>
<g id="clust6" class="cluster">
<title>cluster_AzAngular2GalleryModule_exports</title>
<polygon fill="none" stroke="#000000" points="79,-208 79,-260 733,-260 733,-208 79,-208"/>
</g>
<!-- AzAngular2GalleryComponent -->
<g id="node1" class="node">
<title>AzAngular2GalleryComponent</title>
<polygon fill="#ffffb3" stroke="#000000" points="788.0042,-122 595.9958,-122 595.9958,-86 788.0042,-86 788.0042,-122"/>
<text text-anchor="middle" x="692" y="-99.8" font-family="Times,serif" font-size="14.00" fill="#000000">AzAngular2GalleryComponent</text>
</g>
<!-- AzAngular2GalleryModule -->
<g id="node3" class="node">
<title>AzAngular2GalleryModule</title>
<polygon fill="#8dd3c7" stroke="#000000" points="481.2212,-187 478.2212,-191 457.2212,-191 454.2212,-187 310.7788,-187 310.7788,-151 481.2212,-151 481.2212,-187"/>
<text text-anchor="middle" x="396" y="-164.8" font-family="Times,serif" font-size="14.00" fill="#000000">AzAngular2GalleryModule</text>
</g>
<!-- AzAngular2GalleryComponent&#45;&gt;AzAngular2GalleryModule -->
<g id="edge1" class="edge">
<title>AzAngular2GalleryComponent&#45;&gt;AzAngular2GalleryModule</title>
<path fill="none" stroke="#000000" d="M660.375,-122.0225C660.375,-139.3734 660.375,-163 660.375,-163 660.375,-163 491.4699,-163 491.4699,-163"/>
<polygon fill="#000000" stroke="#000000" points="491.4699,-159.5001 481.4699,-163 491.4699,-166.5001 491.4699,-159.5001"/>
</g>
<!-- AzAngular2GalleryImageComponent -->
<g id="node2" class="node">
<title>AzAngular2GalleryImageComponent</title>
<polygon fill="#ffffb3" stroke="#000000" points="577.9845,-122 350.0155,-122 350.0155,-86 577.9845,-86 577.9845,-122"/>
<text text-anchor="middle" x="464" y="-99.8" font-family="Times,serif" font-size="14.00" fill="#000000">AzAngular2GalleryImageComponent</text>
</g>
<!-- AzAngular2GalleryImageComponent&#45;&gt;AzAngular2GalleryModule -->
<g id="edge2" class="edge">
<title>AzAngular2GalleryImageComponent&#45;&gt;AzAngular2GalleryModule</title>
<path fill="none" stroke="#000000" d="M415.8093,-122.1061C415.8093,-122.1061 415.8093,-140.991 415.8093,-140.991"/>
<polygon fill="#000000" stroke="#000000" points="412.3093,-140.9909 415.8093,-150.991 419.3093,-140.991 412.3093,-140.9909"/>
</g>
<!-- AzAngular2GalleryComponent  -->
<g id="node6" class="node">
<title>AzAngular2GalleryComponent </title>
<polygon fill="#fb8072" stroke="#000000" points="725.0036,-252 528.9964,-252 528.9964,-216 725.0036,-216 725.0036,-252"/>
<text text-anchor="middle" x="627" y="-229.8" font-family="Times,serif" font-size="14.00" fill="#000000">AzAngular2GalleryComponent </text>
</g>
<!-- AzAngular2GalleryModule&#45;&gt;AzAngular2GalleryComponent  -->
<g id="edge5" class="edge">
<title>AzAngular2GalleryModule&#45;&gt;AzAngular2GalleryComponent </title>
<path fill="none" stroke="#000000" stroke-dasharray="5,2" d="M481.5928,-175C518.503,-175 553.3701,-175 553.3701,-175 553.3701,-175 553.3701,-205.9775 553.3701,-205.9775"/>
<polygon fill="#000000" stroke="#000000" points="549.8702,-205.9774 553.3701,-215.9775 556.8702,-205.9775 549.8702,-205.9774"/>
</g>
<!-- AzAngular2GalleryImageComponent  -->
<g id="node7" class="node">
<title>AzAngular2GalleryImageComponent </title>
<polygon fill="#fb8072" stroke="#000000" points="511.484,-252 280.516,-252 280.516,-216 511.484,-216 511.484,-252"/>
<text text-anchor="middle" x="396" y="-229.8" font-family="Times,serif" font-size="14.00" fill="#000000">AzAngular2GalleryImageComponent </text>
</g>
<!-- AzAngular2GalleryModule&#45;&gt;AzAngular2GalleryImageComponent  -->
<g id="edge6" class="edge">
<title>AzAngular2GalleryModule&#45;&gt;AzAngular2GalleryImageComponent </title>
<path fill="none" stroke="#000000" stroke-dasharray="5,2" d="M396,-187.1061C396,-187.1061 396,-205.991 396,-205.991"/>
<polygon fill="#000000" stroke="#000000" points="392.5001,-205.9909 396,-215.991 399.5001,-205.991 392.5001,-205.9909"/>
</g>
<!-- BrowserAnimationsModule  -->
<g id="node8" class="node">
<title>BrowserAnimationsModule </title>
<polygon fill="#fb8072" stroke="#000000" points="262.8017,-252 87.1983,-252 87.1983,-216 262.8017,-216 262.8017,-252"/>
<text text-anchor="middle" x="175" y="-229.8" font-family="Times,serif" font-size="14.00" fill="#000000">BrowserAnimationsModule </text>
</g>
<!-- AzAngular2GalleryModule&#45;&gt;BrowserAnimationsModule  -->
<g id="edge7" class="edge">
<title>AzAngular2GalleryModule&#45;&gt;BrowserAnimationsModule </title>
<path fill="none" stroke="#000000" stroke-dasharray="5,2" d="M310.3548,-175C273.422,-175 238.5335,-175 238.5335,-175 238.5335,-175 238.5335,-205.9775 238.5335,-205.9775"/>
<polygon fill="#000000" stroke="#000000" points="235.0336,-205.9774 238.5335,-215.9775 242.0336,-205.9775 235.0336,-205.9774"/>
</g>
<!-- CommonModule -->
<g id="node4" class="node">
<title>CommonModule</title>
<polygon fill="#8dd3c7" stroke="#000000" points="325.6681,-122 322.6681,-126 301.6681,-126 298.6681,-122 214.3319,-122 214.3319,-86 325.6681,-86 325.6681,-122"/>
<text text-anchor="middle" x="270" y="-99.8" font-family="Times,serif" font-size="14.00" fill="#000000">CommonModule</text>
</g>
<!-- CommonModule&#45;&gt;AzAngular2GalleryModule -->
<g id="edge3" class="edge">
<title>CommonModule&#45;&gt;AzAngular2GalleryModule</title>
<path fill="none" stroke="#000000" d="M318.2367,-122.1061C318.2367,-122.1061 318.2367,-140.991 318.2367,-140.991"/>
<polygon fill="#000000" stroke="#000000" points="314.7367,-140.9909 318.2367,-150.991 321.7367,-140.991 314.7367,-140.9909"/>
</g>
<!-- BrowserAnimationsModule -->
<g id="node5" class="node">
<title>BrowserAnimationsModule</title>
<polygon fill="#8dd3c7" stroke="#000000" points="196.3019,-122 193.3019,-126 172.3019,-126 169.3019,-122 23.6981,-122 23.6981,-86 196.3019,-86 196.3019,-122"/>
<text text-anchor="middle" x="110" y="-99.8" font-family="Times,serif" font-size="14.00" fill="#000000">BrowserAnimationsModule</text>
</g>
<!-- BrowserAnimationsModule&#45;&gt;AzAngular2GalleryModule -->
<g id="edge4" class="edge">
<title>BrowserAnimationsModule&#45;&gt;AzAngular2GalleryModule</title>
<path fill="none" stroke="#000000" d="M141.625,-122.0225C141.625,-139.3734 141.625,-163 141.625,-163 141.625,-163 300.5892,-163 300.5892,-163"/>
<polygon fill="#000000" stroke="#000000" points="300.5892,-166.5001 310.5892,-163 300.5891,-159.5001 300.5892,-166.5001"/>
</g>
</g>
</svg>
